Coordinates
version=1
nRows=29
nColumns=24
inDegrees=yes

Units are S.I. units (second, meters, Newtons, ...)
If the header above contains a line with 'inDegrees', this indicates whether rotational values are in degrees (yes) or radians (no).

endheader
time	pelvis_tilt	pelvis_list	pelvis_rotation	pelvis_tx	pelvis_ty	pelvis_tz	hip_flexion_r	hip_adduction_r	hip_rotation_r	knee_angle_r	ankle_angle_r	subtalar_angle_r	mtp_angle_r	hip_flexion_l	hip_adduction_l	hip_rotation_l	knee_angle_l	ankle_angle_l	subtalar_angle_l	mtp_angle_l	lumbar_extension	lumbar_bending	lumbar_rotation
      2.07000000	     -0.74947092	     -1.07172814	      5.24706500	      0.82293329	      0.78792665	      0.08825159	     30.77081759	     -2.44332927	     -6.52193705	    -40.30924914	      4.02783140	     -2.43000589	      0.00000000	      4.50551102	      2.96815990	      2.27904115	    -20.92438100	     15.89466851	     -5.95870927	      0.00000000	     -9.21989742	      0.64466857	     -3.70877743
      2.07500000	     -0.84189602	     -1.01186187	      5.43521417	      0.82801413	      0.78739684	      0.08835148	     30.82597707	     -2.59057787	     -6.52111214	    -38.49481635	      3.92715041	     -1.92771886	      0.00000000	      4.12188297	      2.97406018	      2.38319785	    -20.79436773	     16.15661794	     -5.75971813	      0.00000000	     -9.17799484	      0.55374825	     -3.82827141
      2.08000000	     -0.84999324	     -0.97232994	      5.64241793	      0.83323851	      0.78691520	      0.08841357	     30.73590019	     -2.75646877	     -6.67125234	    -36.61037004	      3.79691371	     -1.32461962	      0.00000000	      3.63805077	      2.93790249	      2.45445795	    -20.67659867	     16.50138823	     -5.49257975	      0.00000000	     -9.19215923	      0.50738512	     -3.99439890
      2.08500000	     -1.03474887	     -0.80138199	      5.72213088	      0.83819854	      0.78609130	      0.08852998	     30.95697328	     -3.03194169	     -6.75629808	    -34.90151354	      3.79199911	     -1.10102606	      0.00000000	      3.41765503	      3.06920183	      2.34069276	    -20.67082620	     16.64007091	     -5.48109453	      0.00000000	     -9.08277792	      0.27851230	     -3.98660979
      2.09000000	     -1.12629608	     -0.78123330	      5.90778062	      0.84335753	      0.78560433	      0.08869819	     30.83422408	     -3.08967930	     -6.60485175	    -32.79261761	      3.29004726	     -0.27037273	      0.00000000	      2.97203730	      3.02908320	      2.61231222	    -20.44933943	     16.96762083	     -5.16755455	      0.00000000	     -9.02943757	      0.24464130	     -4.13860962
      2.09500000	     -1.13976226	     -0.72268046	      6.08050369	      0.84863537	      0.78507514	      0.08876637	     30.65473791	     -3.26018200	     -6.75766592	    -30.76526786	      2.97413911	      0.38085761	      0.00000000	      2.48152072	      3.00617562	      2.67441539	    -20.31427981	     17.30023420	     -4.87340573	      0.00000000	     -9.04048554	      0.19120281	     -4.28658566
      2.10000000	     -1.11809004	     -0.66812004	      6.25450937	      0.85389046	      0.78454240	      0.08888779	     30.43420586	     -3.42877057	     -7.00975060	    -28.75073771	      2.72925589	      0.97569681	      0.00000000	      1.98409593	      2.95495513	      2.67039388	    -20.23821701	     17.65359372	     -4.45795821	      0.00000000	     -9.11997421	      0.13038800	     -4.45261272
      2.10500000	     -1.35546685	     -0.46570617	      6.31811183	      0.85899232	      0.78361485	      0.08910044	     30.57895763	     -3.70941764	     -7.11114060	    -26.88459353	      2.59830075	      1.31379852	      0.00000000	      1.77896843	      3.10201515	      2.56327462	    -20.17450600	     17.81585972	     -4.41896415	      0.00000000	     -8.92550934	     -0.13866421	     -4.43634755
      2.11000000	     -1.56183968	     -0.30088942	      6.38781934	      0.86410717	      0.78277714	      0.08926460	     30.61518901	     -3.93707536	     -7.14449779	    -24.89423175	      2.25130807	      1.85039342	      0.00000000	      1.52281948	      3.22603897	      2.57198798	    -20.09553604	     17.99259192	     -4.30270477	      0.00000000	     -8.77251140	     -0.35057981	     -4.44992545
      2.11500000	     -1.48034534	     -0.31560816	      6.44337585	      0.86948450	      0.78236301	      0.08956627	     30.24942042	     -3.96579255	     -7.41409385	    -22.74215026	      1.47373607	      2.74702568	      0.00000000	      0.89357617	      3.10828836	      2.75947795	    -19.93670051	     18.27347671	     -3.88432545	      0.00000000	     -8.91110072	     -0.35061590	     -4.64395425
      2.12000000	     -1.52919092	     -0.18694363	      6.57410989	      0.87480005	      0.78170152	      0.08962284	     30.04477170	     -4.19137444	     -7.72440652	    -20.72305788	      1.14779164	      3.35598843	      0.00000000	      0.45993661	      3.14673564	      2.71305321	    -19.85339342	     18.48440812	     -3.57225355	      0.00000000	     -8.90379949	     -0.42046056	     -4.74373323
      2.12500000	     -1.68509949	     -0.04545253	      6.62260157	      0.87999880	      0.78089300	      0.09003730	     29.99740147	     -4.35982102	     -7.93780489	    -18.77158663	      0.78658249	      3.97591279	      0.00000000	      0.15623432	      3.20446374	      2.73800809	    -19.79744460	     18.62800796	     -3.36600704	      0.00000000	     -8.82276429	     -0.67035180	     -4.77209954
      2.13000000	     -1.88395448	      0.18439812	      6.61540623	      0.88535950	      0.77993211	      0.09020763	     30.07277835	     -4.63718145	     -8.29893730	    -17.04644158	      0.73425108	      4.27446651	      0.00000000	     -0.11488972	      3.37670741	      2.56942504	    -19.75142335	     18.76041082	     -3.31442246	      0.00000000	     -8.62931435	     -0.89008652	     -4.75326196
      2.13500000	     -1.98755772	      0.31503020	      6.68741250	      0.89068846	      0.77920465	      0.09039338	     29.91476775	     -4.81038697	     -8.58179061	    -15.11673878	      0.30127926	      5.02377337	      0.00000000	     -0.48836318	      3.43376929	      2.64948054	    -19.68658807	     18.87832579	     -3.05207373	      0.00000000	     -8.59127147	     -1.00214475	     -4.78155304
      2.14000000	     -1.85726144	      0.33430357	      6.75142415	      0.89631765	      0.77875092	      0.09070875	     29.51686471	     -4.86757950	     -9.35491130	    -13.28834299	     -0.08757073	      5.97052135	      0.00000000	     -1.15742961	      3.31213095	      2.72788588	    -19.57063632	     19.06898321	     -2.59146197	      0.00000000	     -8.75574896	     -0.99278200	     -4.94663376
      2.14500000	     -2.03356781	      0.53747913	      6.70574192	      0.90174231	      0.77778070	      0.09117505	     29.62610136	     -5.03980014	     -9.82764837	    -11.84741497	      0.02644284	      6.20633002	      0.00000000	     -1.43162954	      3.42820934	      2.56036255	    -19.56348697	     19.17518533	     -2.54092620	      0.00000000	     -8.59693366	     -1.25964760	     -4.93563047
      2.15000000	     -1.79300780	      0.47682658	      6.93576414	      0.90762813	      0.77743859	      0.09130965	     29.15111729	     -5.13988838	    -11.29202673	    -10.37977145	      0.20769996	      8.16083281	      0.00000000	     -2.14935161	      3.15245662	      2.56084826	    -19.57412987	     19.52330383	     -1.60270425	      0.00000000	     -8.84939356	     -1.10314125	     -5.25259285
      2.15500000	     -1.97901363	      0.66342220	      6.81630864	      0.91308146	      0.77645469	      0.09191562	     29.32769281	     -5.22767376	    -11.70227612	     -9.19349632	      0.31682865	      8.30514390	      0.00000000	     -2.39138248	      3.26146504	      2.45322034	    -19.62650712	     19.57816084	     -1.58123456	      0.00000000	     -8.67896785	     -1.37605148	     -5.22000970
      2.16000000	     -1.99775780	      0.69912742	      6.94588111	      0.91873889	      0.77584015	      0.09228143	     29.10036519	     -5.25543994	    -12.31370573	     -7.77115694	      0.17421888	      9.17706371	      0.00000000	     -2.82434666	      3.15619414	      2.59349844	    -19.62540232	     19.59281642	     -1.19823331	      0.00000000	     -8.69491178	     -1.39623316	     -5.21514742
      2.16500000	     -1.77486367	      0.63989159	      7.09097692	      0.92471927	      0.77541016	      0.09263614	     28.82517146	     -5.26691637	    -13.87863465	     -6.91685479	      0.63006294	     10.62724747	      0.00000000	     -3.51262726	      2.86691384	      2.51574686	    -19.64540657	     19.85379661	     -0.51905850	      0.00000000	     -8.91786958	     -1.25398283	     -5.49371870
      2.17000000	     -1.81512686	      0.67341217	      7.16152274	      0.93044181	      0.77466237	      0.09306838	     28.92736795	     -5.34574139	    -15.07280046	     -6.31635209	      1.08302912	     11.89702065	      0.00000000	     -3.84040847	      2.74029513	      2.47834340	    -19.80820824	     20.01753475	      0.00099168	      0.00000000	     -8.88146908	     -1.26952719	     -5.60628289
      2.17500000	     -1.94414093	      0.78865402	      7.03227758	      0.93600554	      0.77377567	      0.09369442	     29.12870276	     -5.33099175	    -15.35033856	     -5.73172627	      1.23822951	     11.90866332	      0.00000000	     -4.09874081	      2.77285625	      2.46929243	    -19.93323726	     20.00935690	      0.03034508	      0.00000000	     -8.77832269	     -1.41612182	     -5.59710972
      2.18000000	     -2.05735412	      0.88334045	      7.01504911	      0.94182801	      0.77296050	      0.09429673	     29.23177128	     -5.32339723	    -15.71252765	     -5.18168502	      1.44010511	     11.95048008	      0.00000000	     -4.40147189	      2.74333033	      2.49137446	    -20.00428306	     19.97043418	      0.12726054	      0.00000000	     -8.64400220	     -1.54229728	     -5.57553713
      2.18500000	     -1.88831181	      0.71701766	      7.29219952	      0.94786109	      0.77253025	      0.09457948	     29.19160502	     -5.34914052	    -17.56487971	     -5.22519412	      2.19596231	     13.77561008	      0.00000000	     -4.88692428	      2.33072797	      2.63658641	    -20.26219699	     20.13803333	      1.04883588	      0.00000000	     -8.79710070	     -1.25764343	     -5.88523098
      2.19000000	     -1.95640266	      0.78624015	      7.19078541	      0.95365888	      0.77177198	      0.09513774	     29.34502769	     -5.30880626	    -17.71998483	     -5.07834255	      2.26995540	     13.71148230	      0.00000000	     -5.18152315	      2.30437381	      2.69061486	    -20.44676748	     20.09589990	      1.07641135	      0.00000000	     -8.72932930	     -1.30777342	     -5.89497218
      2.19500000	     -1.90786160	      0.77550649	      7.25347913	      0.95973732	      0.77120128	      0.09563866	     29.39809688	     -5.27366641	    -18.29931755	     -5.19691031	      2.58895277	     13.42964308	      0.00000000	     -5.64336323	      2.14579728	      2.92438456	    -20.52734562	     19.89987136	      1.28191191	      0.00000000	     -8.74209230	     -1.26104685	     -5.94604665
      2.20000000	     -1.94319867	      0.81410743	      7.20047524	      0.96579686	      0.77052114	      0.09612636	     29.47935605	     -5.23302618	    -18.36672996	     -5.26905273	      2.60200340	     13.37786962	      0.00000000	     -5.95193939	      2.08364015	      3.00402131	    -20.75988226	     19.85500872	      1.30686287	      0.00000000	     -8.64119983	     -1.26468126	     -5.96895860
      2.20500000	     -1.92360508	      0.81121570	      7.12831955	      0.97192332	      0.76988836	      0.09666106	     29.58790672	     -5.16704823	    -18.52092607	     -5.61332261	      2.62948345	     13.20150137	      0.00000000	     -6.32079539	      1.97959528	      3.16626098	    -21.00317843	     19.74448319	      1.38076515	      0.00000000	     -8.60454023	     -1.21413131	     -6.01502300
      2.21000000	     -1.74002365	      0.68707294	      7.41869833	      0.97808802	      0.76956307	      0.09690483	     29.59192750	     -5.18572452	    -19.40070843	     -6.33083723	      2.85160094	     12.54027429	      0.00000000	     -6.83877016	      1.67240854	      3.68897440	    -21.19708034	     19.40826504	      1.57770169	      0.00000000	     -8.79846313	     -0.95306243	     -6.43143427
